<svg width="291" height="46" viewBox="0 0 291 46" fill="none" xmlns="http://www.w3.org/2000/svg">
<path d="M29.3291 30.725C28.8392 31.5885 28.2601 32.4008 27.6014 33.147L27.6197 33.1653L27.0084 33.7791C24.2847 36.5193 20.6568 38.0294 16.7939 38.0294C12.9467 38.0294 9.32903 36.5305 6.60881 33.8103C3.88858 31.09 2.38969 27.4724 2.38969 23.6252C2.38969 23.3417 2.39831 23.053 2.41557 22.7669C2.41734 22.7279 2.41989 22.6881 2.42264 22.6473L2.42343 22.6361C2.42519 22.61 2.42695 22.5841 2.42872 22.5573L2.42951 22.5443C2.43382 22.4854 2.43911 22.4256 2.44421 22.3658C2.44853 22.3171 2.45285 22.2652 2.45815 22.2132C2.4658 22.1369 2.47384 22.0588 2.48227 21.9809C2.48737 21.9358 2.49267 21.8856 2.49954 21.8361C2.5064 21.773 2.51602 21.7018 2.52563 21.6308C2.53171 21.5909 2.53681 21.5527 2.54289 21.5137C2.55152 21.4487 2.56289 21.3767 2.57486 21.3047C2.58094 21.2667 2.58781 21.2241 2.59487 21.1825C2.60095 21.1478 2.60704 21.1115 2.6139 21.076C2.62155 21.0301 2.63116 20.9771 2.64077 20.9259C2.6494 20.881 2.65902 20.8314 2.66863 20.7822C2.68001 20.7259 2.69119 20.6694 2.70413 20.6123C2.78652 20.2195 2.88794 19.8251 3.00407 19.441L3.0076 19.4306C3.02231 19.3804 3.03782 19.3292 3.05429 19.2789C3.06724 19.2364 3.08116 19.1922 3.09588 19.1481C3.17728 18.8968 3.2683 18.6428 3.36462 18.3966C3.37757 18.3628 3.39149 18.3264 3.4062 18.2909C3.42092 18.2526 3.43661 18.2138 3.45309 18.1737C3.47212 18.1261 3.4939 18.0741 3.51626 18.0211C3.53274 17.9811 3.55176 17.937 3.57099 17.8928L3.57962 17.8728C3.6065 17.813 3.63259 17.7532 3.65926 17.6933C3.67927 17.649 3.69928 17.6056 3.72008 17.5615C4.08337 16.7778 4.52376 16.0202 5.0281 15.3093L5.10971 15.1965C5.16699 15.1177 5.22407 15.0406 5.28135 14.9643C5.30921 14.9288 5.33765 14.8897 5.36727 14.8525C5.43063 14.7711 5.494 14.6904 5.55795 14.6106C5.59522 14.5647 5.63327 14.517 5.67231 14.4711C5.70703 14.4278 5.74686 14.3819 5.78589 14.335C5.82395 14.2891 5.86377 14.2432 5.90379 14.1981C5.94812 14.1469 5.99324 14.0949 6.03894 14.0437L4.3476 12.3516C1.54146 15.4419 0 19.4316 0 23.6256C0 28.1117 1.74685 32.3282 4.91885 35.5002C8.09084 38.6722 12.3072 40.4191 16.7935 40.4191C21.2935 40.4191 25.5205 38.6618 28.6943 35.4726C29.6002 34.5632 30.3986 33.5541 31.0722 32.4687L29.3291 30.725Z" fill="#F47D43"/>
<path d="M7.83792 32.5808C10.2296 34.9726 13.4104 36.2903 16.7938 36.2903C16.8996 36.2903 17.0053 36.2885 17.112 36.2859C17.165 36.2851 17.2162 36.2834 17.2682 36.2816H17.276C17.3541 36.2781 17.4312 36.2747 17.5093 36.2702C17.5716 36.2667 17.6332 36.2634 17.6946 36.2591C17.7268 36.2565 17.7537 36.2547 17.7796 36.253L17.8221 36.2494C17.8784 36.2451 17.9365 36.2398 17.9938 36.2337C18.045 36.2294 18.0925 36.2251 18.1411 36.2198C18.1766 36.2163 18.207 36.213 18.2364 36.2094L18.3006 36.2024C18.3422 36.1973 18.3838 36.192 18.4263 36.1861C18.5823 36.1669 18.7367 36.1445 18.8867 36.1194C18.9291 36.1123 18.9709 36.1047 19.0125 36.0976L19.0264 36.0951C19.0601 36.089 19.0923 36.0837 19.1253 36.0778L19.1417 36.0743C19.1851 36.0664 19.2284 36.0578 19.2708 36.0492C19.3852 36.0266 19.4962 36.004 19.6072 35.9789C19.6818 35.9625 19.7563 35.9442 19.8301 35.926L19.8395 35.9234C19.8585 35.9191 19.8768 35.9148 19.896 35.9095C19.9515 35.8958 20.0009 35.8826 20.0504 35.8697C20.0937 35.8583 20.1343 35.8481 20.1744 35.8367C20.2099 35.8271 20.2403 35.8185 20.2707 35.8098C20.3001 35.8012 20.3236 35.7951 20.346 35.7883L20.3633 35.7832C20.3945 35.7745 20.4256 35.7649 20.4568 35.7553C20.5088 35.7396 20.5549 35.7259 20.5998 35.7112C20.6363 35.6998 20.6693 35.6896 20.703 35.679C20.8097 35.6443 20.9145 35.6088 21.0194 35.5715C21.0489 35.5611 21.0767 35.5515 21.1036 35.5413L21.1244 35.5344C21.1617 35.5213 21.1946 35.5093 21.2266 35.4962C21.2786 35.4771 21.3255 35.4597 21.3723 35.4407C21.4122 35.4259 21.4459 35.4128 21.4798 35.3991C21.5448 35.373 21.6028 35.3496 21.6619 35.3253L21.8378 35.25C21.8934 35.2264 21.9471 35.2031 21.9991 35.179C22.0303 35.165 22.0564 35.1529 22.0832 35.1407L22.1084 35.1295C22.1509 35.1095 22.195 35.0887 22.2384 35.0679C22.5046 34.9414 22.7673 34.8045 23.0213 34.6605C23.049 34.6448 23.0751 34.6293 23.1009 34.6146C23.16 34.5809 23.2181 34.5461 23.2761 34.5124L23.5657 34.3337C23.6939 34.2523 23.8258 34.1646 23.9688 34.0667C24.0078 34.0389 24.0476 34.0112 24.0867 33.9835L24.1032 33.9722C24.1326 33.9514 24.162 33.9306 24.1906 33.909L24.1993 33.9029C24.2211 33.8874 24.2426 33.8717 24.2634 33.856L24.2713 33.85C24.3076 33.8241 24.344 33.797 24.3796 33.7703C24.4204 33.7399 24.4594 33.7105 24.4974 33.6811C24.5243 33.6603 24.5469 33.642 24.5702 33.6238L24.5971 33.603C24.6371 33.5718 24.6769 33.5396 24.7168 33.5076C24.7583 33.4747 24.7982 33.4417 24.8382 33.4088L24.8486 33.4001C24.9249 33.3378 25.0002 33.2736 25.0757 33.2077C25.0983 33.1877 25.1216 33.1677 25.1452 33.1479L23.4513 31.454C21.597 33.0345 19.2459 33.9004 16.7944 33.9004C11.1284 33.9004 6.5191 29.2911 6.5191 23.6252C6.5191 20.8642 7.59919 18.2721 9.56005 16.3285C10.4807 15.4165 11.5825 14.6762 12.7728 14.1681L10.9766 12.3718C9.83135 12.9656 8.78598 13.7287 7.86616 14.6432C5.45608 17.0384 4.12903 20.2276 4.12903 23.6252C4.12844 27.0085 5.44627 30.1891 7.83792 32.5808Z" fill="#F47D43"/>
<path d="M31.1634 20.4731C31.1634 15.9878 29.4168 11.7712 26.2448 8.59925C23.0728 5.42726 18.8562 3.68042 14.3701 3.68042C9.87007 3.68042 5.6431 5.43669 2.46935 8.62692C1.56346 9.53536 0.765062 10.5454 0.0914307 11.6308L1.83474 13.3741C2.32457 12.5108 2.90464 11.6985 3.56258 10.9521L3.54433 10.9338L4.15557 10.32C6.87933 7.57881 10.5072 6.06971 14.3701 6.06971C18.2173 6.06971 21.835 7.56861 24.5552 10.2888C27.2756 13.0092 28.7743 16.6259 28.7743 20.4731C28.7743 20.7584 28.7657 21.0469 28.7484 21.3321C28.7467 21.3702 28.7441 21.411 28.7414 21.4518C28.7396 21.4804 28.737 21.5099 28.7353 21.5403L28.7345 21.5542C28.7302 21.614 28.7249 21.6739 28.7198 21.7327C28.7155 21.7822 28.7111 21.8349 28.7058 21.8871C28.698 21.9616 28.6902 22.0405 28.6815 22.1186C28.6762 22.1635 28.6711 22.2129 28.6643 22.2633C28.6572 22.3267 28.6478 22.3977 28.6382 22.4687C28.6321 22.5085 28.6268 22.5468 28.6209 22.5849C28.6123 22.6508 28.6009 22.7228 28.5887 22.7946C28.5827 22.8326 28.5758 22.8744 28.5687 22.9168C28.5627 22.9523 28.5566 22.9878 28.5497 23.0235C28.5426 23.0694 28.5324 23.1223 28.5228 23.1735C28.5142 23.2185 28.5046 23.2681 28.4942 23.3173C28.4838 23.3729 28.4726 23.4301 28.4595 23.4872C28.3763 23.8799 28.2757 24.2754 28.1595 24.6585C28.1431 24.7121 28.1274 24.766 28.1093 24.8205C28.0964 24.8631 28.0824 24.9065 28.0677 24.9514C27.9853 25.2044 27.8953 25.4577 27.799 25.7029C27.786 25.7366 27.7721 25.7721 27.7584 25.8076C27.7427 25.8467 27.7272 25.8857 27.7107 25.9255C27.6917 25.9732 27.6691 26.0262 27.6473 26.0782C27.6309 26.1182 27.6118 26.1623 27.5928 26.2065L27.5842 26.2265C27.5573 26.2863 27.5314 26.3461 27.5043 26.405C27.4843 26.4493 27.4645 26.4935 27.4435 26.5368C27.0802 27.3205 26.64 28.079 26.1353 28.789L26.0547 28.9018C25.9966 28.9814 25.9393 29.0587 25.8821 29.1342C25.8544 29.1707 25.8257 29.2096 25.7961 29.2468C25.733 29.3282 25.6696 29.4089 25.6055 29.4887C25.5682 29.5346 25.5299 29.5823 25.4911 29.6282C25.4581 29.669 25.4216 29.7123 25.3854 29.7557L25.3783 29.7633C25.3385 29.8092 25.2994 29.8561 25.2596 29.9012C25.2155 29.9524 25.1704 30.0044 25.1245 30.0556L26.8158 31.7477C29.6221 28.6573 31.1634 24.6679 31.1634 20.4731Z" fill="#F47D43"/>
<path d="M18.3915 29.9309L20.1877 31.7272C21.333 31.1334 22.3783 30.3705 23.2981 29.4558C25.708 27.0606 27.0353 23.8704 27.0353 20.473C27.0353 17.0903 25.7176 13.9097 23.3258 11.5181C20.934 9.12643 17.7533 7.80859 14.3699 7.80859C14.2641 7.80859 14.1582 7.81035 14.0517 7.8129C13.9989 7.81369 13.9467 7.81466 13.8957 7.81721H13.8879C13.8098 7.82075 13.7327 7.82428 13.6546 7.8286C13.5923 7.83213 13.5307 7.83566 13.4691 7.83978C13.4369 7.84155 13.4102 7.84428 13.3841 7.84585L13.3408 7.84939C13.2853 7.8537 13.2272 7.859 13.1699 7.8641C13.1187 7.8692 13.0711 7.87371 13.0224 7.87882C12.9869 7.88235 12.9565 7.88568 12.9263 7.88921L12.8769 7.89451C12.8708 7.8953 12.8655 7.89628 12.8604 7.89706C12.8188 7.90138 12.7788 7.90647 12.7374 7.91176C12.5812 7.93177 12.427 7.95414 12.277 7.97945C12.2344 7.98631 12.1928 7.99318 12.1512 8.00102L12.1375 8.00357C12.1046 8.00887 12.0734 8.01495 12.0422 8.02084L12.0214 8.02437C11.9798 8.03222 11.9382 8.04007 11.8964 8.0487C11.7785 8.07126 11.6675 8.0946 11.5567 8.11971C11.4821 8.13619 11.4076 8.15442 11.3338 8.17267L11.3242 8.17522C11.3052 8.17875 11.2869 8.18386 11.2679 8.18817C11.2124 8.2021 11.163 8.21505 11.1135 8.228C11.071 8.23937 11.0304 8.24957 10.9895 8.26173C10.954 8.27135 10.9236 8.27997 10.8924 8.2886C10.863 8.29723 10.8405 8.30331 10.8179 8.31018L10.8006 8.31548C10.7694 8.32411 10.7383 8.33274 10.7071 8.34314C10.6551 8.35785 10.6092 8.37256 10.5641 8.38727C10.5276 8.39865 10.4946 8.40885 10.4609 8.41944C10.3544 8.45416 10.2492 8.48968 10.1445 8.52695C10.1158 8.53636 10.0897 8.54598 10.0631 8.55559L10.0387 8.56422C10.0032 8.57717 9.97205 8.58854 9.94007 8.6007C9.88534 8.62071 9.83864 8.63876 9.79176 8.657C9.75272 8.67171 9.71899 8.68564 9.68427 8.69937C9.61914 8.72448 9.56108 8.74881 9.50223 8.77314L9.32626 8.84865C9.27075 8.87199 9.21779 8.89534 9.16502 8.91966C9.13481 8.93359 9.10774 8.94575 9.08087 8.95792L9.05576 8.9691C9.01319 8.98911 8.96905 9.00991 8.9257 9.0307C8.6597 9.15742 8.39605 9.29414 8.143 9.43813C8.11436 9.45382 8.08925 9.46834 8.06316 9.48403C8.00765 9.51601 7.95233 9.54818 7.8976 9.58113L7.71457 9.69217C7.6773 9.71551 7.63748 9.74062 7.59844 9.76494C7.46937 9.84635 7.33755 9.93404 7.19631 10.0319C7.16002 10.057 7.12333 10.0821 7.08782 10.1075L7.06448 10.1239C7.03153 10.1473 7.0021 10.1681 6.97268 10.1898L6.96051 10.1985C6.9405 10.2132 6.92069 10.2279 6.90068 10.2428L6.89303 10.2489C6.85655 10.275 6.82025 10.3018 6.78475 10.3285C6.74395 10.3589 6.70589 10.3884 6.66764 10.418C6.63979 10.4388 6.61742 10.457 6.59486 10.4743L6.56701 10.4959C6.52719 10.527 6.48717 10.5582 6.44735 10.5912C6.40223 10.6267 6.35888 10.6632 6.31553 10.6987C6.23843 10.7611 6.16389 10.8252 6.08836 10.8911C6.06502 10.9111 6.04246 10.9311 6.01892 10.951L7.71281 12.6448C9.56716 11.0645 11.9182 10.1975 14.3697 10.1975C20.0357 10.1975 24.6448 14.8076 24.6448 20.4728C24.6448 23.2348 23.5647 25.8258 21.6039 27.7704C20.6836 28.6825 19.5818 29.4229 18.3915 29.9309Z" fill="#F47D43"/>
<path d="M65.6523 22.5C67.9335 23.2853 69.3546 25.0803 69.3546 27.8103C69.3546 33.2327 64.8296 36 57.9861 36H45.3837L50.6191 9.82275H62.2119C67.4474 9.82275 70.4764 11.8047 70.4764 15.5817C70.4764 19.097 68.4196 21.4529 65.6523 22.5ZM61.4266 12.8518H53.723L52.0402 21.2286H59.7064C63.8199 21.2286 66.5872 19.5457 66.5872 16.1801C66.5872 13.8989 64.68 12.8518 61.4266 12.8518ZM58.2479 32.9709C62.9598 32.9709 65.6523 31.1759 65.6523 27.8477C65.6523 25.1925 63.7077 24.2576 60.1925 24.2576H51.4418L49.7216 32.9709H58.2479ZM80.0063 19.1344C81.8013 16.8906 84.3068 15.9931 87.8595 15.9931L87.1863 19.4709C86.8498 19.4335 86.6254 19.4335 86.2514 19.4335C82.2875 19.4335 79.6697 21.5277 78.7722 26.09L76.7902 36H73.2002L77.1268 16.1801H80.5672L80.0063 19.1344ZM95.0515 12.3657C93.7426 12.3657 92.8077 11.3934 92.8077 10.1967C92.8077 8.81305 93.8548 7.69117 95.3881 7.69117C96.6969 7.69117 97.6692 8.66347 97.6692 9.78535C97.6692 11.3186 96.5847 12.3657 95.0515 12.3657ZM88.2828 36L92.2094 16.1801H95.7994L91.8728 36H88.2828ZM118.211 16.1801H121.614L118.211 33.3075C116.79 40.4875 112.938 43.4792 106.356 43.4792C102.579 43.4792 99.4379 42.4695 97.3064 40.6745L99.2884 37.9072C100.822 39.3283 103.514 40.3005 106.618 40.3005C111.292 40.3005 113.648 38.169 114.509 33.8684L114.808 32.4474C113.013 34.1676 110.582 35.1773 107.628 35.1773C102.392 35.1773 98.8022 32.1108 98.8022 27.0997C98.8022 20.8172 103.477 15.9931 110.096 15.9931C113.349 15.9931 116.191 17.1898 117.5 19.8075L118.211 16.1801ZM108.338 32.036C112.863 32.036 116.117 28.7826 116.117 24.2576C116.117 21.079 113.948 19.1344 110.208 19.1344C105.683 19.1344 102.43 22.3878 102.43 26.8754C102.43 30.0914 104.636 32.036 108.338 32.036ZM138.608 15.9931C143.095 15.9931 145.788 18.3491 145.788 22.5748C145.788 23.2853 145.713 24.0707 145.563 24.8934L143.357 36H139.767L141.973 24.8934C142.086 24.295 142.16 23.7341 142.16 23.2479C142.16 20.6676 140.664 19.2092 137.561 19.2092C133.709 19.2092 131.091 21.2659 130.231 25.5291L128.137 36H124.547L130.081 8.25211H133.671L131.615 18.4986C133.447 16.7784 135.84 15.9931 138.608 15.9931ZM157.443 19.1344L155.311 29.6801C155.236 30.054 155.199 30.3906 155.199 30.7272C155.199 32.2604 156.022 33.1953 157.817 33.1953C158.789 33.1953 159.836 32.8587 160.659 32.2604L161.407 34.9903C160.06 35.9252 158.378 36.2244 156.807 36.2244C153.703 36.2244 151.572 34.3546 151.572 31.2507C151.572 30.8019 151.609 30.2784 151.721 29.7549L153.853 19.1344H150.487L151.048 16.1801H154.451L155.311 11.8421H158.901L158.041 16.1801H163.725L163.127 19.1344H157.443ZM205.894 9.82275H209.11L203.874 36H200.284L204.099 17.0776L191.721 32.8213H190L183.456 16.7036L179.604 36H176.014L181.25 9.82275H184.279L191.571 28.259L205.894 9.82275ZM218.013 12.3657C216.704 12.3657 215.769 11.3934 215.769 10.1967C215.769 8.81305 216.816 7.69117 218.35 7.69117C219.658 7.69117 220.631 8.66347 220.631 9.78535C220.631 11.3186 219.546 12.3657 218.013 12.3657ZM211.244 36L215.171 16.1801H218.761L214.834 36H211.244ZM235.75 15.9931C240.237 15.9931 242.93 18.3491 242.93 22.5748C242.93 23.2853 242.855 24.0707 242.706 24.8934L240.499 36H236.909L239.115 24.8934C239.228 24.295 239.302 23.7341 239.302 23.2479C239.302 20.6676 237.807 19.2092 234.703 19.2092C230.851 19.2092 228.233 21.2659 227.373 25.5291L225.279 36H221.689L225.616 16.1801H229.056L228.57 18.723C230.402 16.8532 232.908 15.9931 235.75 15.9931ZM267.858 8.25211H271.448L265.913 36H262.473L262.959 33.5693C261.201 35.2521 258.808 36.2244 255.966 36.2244C250.917 36.2244 247.215 33.0083 247.215 27.6607C247.215 20.8546 252.002 15.9931 258.434 15.9931C261.837 15.9931 264.343 17.2272 265.614 19.5831L267.858 8.25211ZM256.751 33.0831C261.239 33.0831 264.492 29.6053 264.492 24.7064C264.492 21.1912 262.361 19.1344 258.584 19.1344C254.134 19.1344 250.843 22.6122 250.843 27.5111C250.843 30.9889 252.974 33.0831 256.751 33.0831ZM278.988 36.2244C275.623 36.2244 272.444 35.2521 270.836 33.9432L272.444 31.1011C273.977 32.3352 276.633 33.1205 279.325 33.1205C282.765 33.1205 284.523 32.036 284.523 30.2036C284.523 26.3518 273.529 29.1191 273.529 22.4252C273.529 18.4986 277.081 15.9931 282.504 15.9931C285.121 15.9931 287.814 16.6662 289.422 17.7881L288.001 20.6302C286.393 19.5083 284.187 19.0596 282.167 19.0596C278.839 19.0596 277.119 20.2936 277.119 22.0139C277.119 26.0152 288.076 23.2105 288.076 29.7923C288.076 33.9058 284.373 36.2244 278.988 36.2244Z" fill="#505050"/>
</svg>
