<svg width="78" height="78" viewBox="0 0 78 78" fill="none" xmlns="http://www.w3.org/2000/svg">
<circle opacity="0.2" cx="39" cy="39" r="39" fill="#F47D43"/>
<path d="M37.1667 35.3334C41.2168 35.3334 44.5 32.0502 44.5 28.0001C44.5 23.95 41.2168 20.6667 37.1667 20.6667C33.1166 20.6667 29.8334 23.95 29.8334 28.0001C29.8334 32.0502 33.1166 35.3334 37.1667 35.3334Z" stroke="#F47D43" stroke-width="2"/>
<path d="M48.1666 35.8835L50.6105 38.0835L55.5 32.5835" stroke="#F47D43" stroke-width="2" stroke-linecap="round" stroke-linejoin="round"/>
<path d="M51.8297 50.0002C51.8321 49.6995 51.8333 49.3939 51.8333 49.0835C51.8333 44.5277 45.2663 40.8335 37.1667 40.8335C29.067 40.8335 22.5 44.5277 22.5 49.0835C22.5 53.6393 22.5 57.3335 37.1667 57.3335C41.2568 57.3335 44.2067 57.0457 46.3333 56.5323" stroke="#F47D43" stroke-width="2" stroke-linecap="round"/>
</svg>
