<svg width="78" height="78" viewBox="0 0 78 78" fill="none" xmlns="http://www.w3.org/2000/svg">
<circle opacity="0.3" cx="39" cy="39" r="39" fill="#FFB38F"/>
<path d="M39 37.1668C41.025 37.1668 42.6666 35.5252 42.6666 33.5002C42.6666 31.4751 41.025 29.8335 39 29.8335C36.9749 29.8335 35.3333 31.4751 35.3333 33.5002C35.3333 35.5252 36.9749 37.1668 39 37.1668Z" stroke="#FFB38F" stroke-width="2"/>
<path d="M46.3334 44.5002C46.3334 46.526 46.3334 48.1668 39 48.1668C31.6667 48.1668 31.6667 46.526 31.6667 44.5002C31.6667 42.4743 34.9484 40.8335 39 40.8335C43.0517 40.8335 46.3334 42.4743 46.3334 44.5002Z" stroke="#FFB38F" stroke-width="2"/>
<path d="M22.5 36.0979C22.5 30.2349 22.5 27.3034 23.193 26.3171C23.8842 25.3326 26.6397 24.3884 32.1525 22.5019L33.203 22.1426C36.0758 21.1581 37.5113 20.6667 39 20.6667C40.4887 20.6667 41.9242 21.1581 44.797 22.1426L45.8475 22.5019C51.3603 24.3884 54.1158 25.3326 54.807 26.3171C55.5 27.3034 55.5 30.2367 55.5 36.0979V38.9836C55.5 43.5761 53.9655 47.1181 51.8333 49.8241M22.8538 42.6667C24.425 50.5464 30.8893 54.6072 35.1482 56.4662C36.47 57.0437 37.1318 57.3334 39 57.3334C40.87 57.3334 41.53 57.0437 42.8518 56.4662C43.9133 56.0042 45.1087 55.4029 46.3333 54.6439" stroke="#FFB38F" stroke-width="2" stroke-linecap="round"/>
</svg>
