<svg width="19" height="24" viewBox="0 0 19 24" fill="none" xmlns="http://www.w3.org/2000/svg">
<path d="M0.960327 22.6505H5.22047M18.0009 22.6505H9.4806M16.2297 7.8582L17.02 7.07008C17.3312 6.75895 17.578 6.38958 17.7465 5.98305C17.9149 5.57652 18.0017 5.1408 18.0017 4.70075C18.0018 4.26071 17.9151 3.82496 17.7468 3.41839C17.5784 3.01183 17.3316 2.6424 17.0205 2.33121C16.7094 2.02001 16.34 1.77315 15.9335 1.6047C15.527 1.43626 15.0912 1.34954 14.6512 1.34949C14.2111 1.34944 13.7754 1.43606 13.3688 1.60441C12.9623 1.77277 12.5928 2.01955 12.2816 2.33067L11.4914 3.12093C11.4914 3.12093 11.5904 4.79942 13.0708 6.27982C14.5512 7.76022 16.2297 7.85927 16.2297 7.85927L12.6012 11.4889M11.4914 3.11986L4.23105 10.3813C3.739 10.8733 3.49298 11.1183 3.2821 11.3899C3.0323 11.7095 2.81836 12.0555 2.64415 12.4219C2.49611 12.7318 2.38641 13.062 2.16595 13.7212L1.23404 16.518L1.00719 17.2018C0.954012 17.3609 0.946239 17.5318 0.984744 17.6951C1.02325 17.8585 1.10651 18.0079 1.22518 18.1265C1.34385 18.2452 1.49324 18.3285 1.65659 18.367C1.81994 18.4055 1.99079 18.3977 2.14997 18.3445L2.83266 18.1177M8.96939 15.1207C8.47734 15.6127 8.23238 15.8577 7.9608 16.0696C7.64058 16.3195 7.29657 16.5322 6.92878 16.7076C6.61886 16.8556 6.2887 16.9653 5.62944 17.1847L2.83266 18.1177M2.83266 18.1177L1.23511 16.5191" stroke="#949494" stroke-width="1.5" stroke-linecap="round"/>
</svg>
