<svg width="98" height="98" viewBox="0 0 98 98" fill="none" xmlns="http://www.w3.org/2000/svg">
<rect opacity="0.2" width="98" height="98" rx="8" fill="#F47D43"/>
<path d="M28 73C26.722 73 25.814 72.43 25.276 71.29C24.738 70.15 24.865 69.085 25.657 68.095L43 47.038V28H38.848C38.422 28 38.065 27.856 37.777 27.568C37.489 27.28 37.346 26.923 37.348 26.497C37.35 26.071 37.493 25.715 37.777 25.429C38.061 25.143 38.418 25 38.848 25H59.155C59.579 25 59.935 25.144 60.223 25.432C60.511 25.72 60.655 26.077 60.655 26.503C60.655 26.929 60.511 27.285 60.223 27.571C59.935 27.857 59.579 28 59.155 28H55V47.038L72.34 68.098C73.134 69.086 73.262 70.15 72.724 71.29C72.186 72.43 71.278 73 70 73H28ZM28 70H70L52 48.1V28H46V48.1L28 70Z" fill="#F47D43"/>
</svg>
