<svg width="98" height="98" viewBox="0 0 98 98" fill="none" xmlns="http://www.w3.org/2000/svg">
<rect opacity="0.2" width="98" height="98" rx="8" fill="#F47D43"/>
<path d="M34 55C32.6905 55.002 31.3971 55.2897 30.2103 55.843C29.0234 56.3964 27.9716 57.2021 27.1282 58.204C26.2849 59.2058 25.6703 60.3796 25.3274 61.6435C24.9845 62.9074 24.9216 64.2308 25.143 65.5215C25.3644 66.8122 25.8647 68.039 26.6092 69.1164C27.3537 70.1937 28.3243 71.0957 29.4533 71.7592C30.5823 72.4227 31.8425 72.8319 33.1459 72.9581C34.4494 73.0843 35.7647 72.9246 37 72.49" stroke="#F47D43" stroke-width="2.5" stroke-linecap="round" stroke-linejoin="round"/>
<path d="M25.792 59.8148C23.9967 58.9504 22.4448 57.6527 21.2765 56.0386C20.1082 54.4245 19.3602 52.5449 19.1001 50.5695C18.8399 48.594 19.0757 46.5848 19.7862 44.7233C20.4968 42.8617 21.6597 41.2064 23.17 39.9068M23.26 39.6638C22.2761 38.1915 21.8449 36.4186 22.0426 34.6589C22.2404 32.8993 23.0544 31.2663 24.3405 30.0492C25.6266 28.8321 27.3019 28.1092 29.0698 28.0087C30.8377 27.9081 32.5841 28.4363 34 29.4998M34.714 29.6948C34.2354 28.6779 33.9915 27.5665 34.0002 26.4426C34.009 25.3188 34.2701 24.2113 34.7645 23.202C35.2588 22.1927 35.9737 21.3074 36.8562 20.6116C37.7387 19.9157 38.7663 19.4271 39.8631 19.1818C40.9598 18.9365 42.0977 18.9408 43.1926 19.1945C44.2874 19.4481 45.3113 19.9445 46.1885 20.6471C47.0657 21.3497 47.7738 22.2404 48.2604 23.2534C48.747 24.2664 48.9998 25.3759 49 26.4998V72.9998C49 74.5911 48.3678 76.1172 47.2426 77.2424C46.1174 78.3676 44.5913 78.9998 43 78.9998C41.4087 78.9998 39.8826 78.3676 38.7573 77.2424C37.6321 76.1172 37 74.5911 37 72.9998M49 33.9998C49 36.3867 49.9482 38.6759 51.636 40.3637C53.3238 42.0515 55.613 42.9998 58 42.9998M64 54.9998C65.3095 55.0017 66.6029 55.2894 67.7898 55.8428C68.9766 56.3962 70.0285 57.2019 70.8718 58.2037C71.7152 59.2056 72.3297 60.3794 72.6726 61.6432C73.0155 62.9071 73.0784 64.2306 72.857 65.5213C72.6356 66.812 72.1353 68.0388 71.3908 69.1161C70.6463 70.1935 69.6757 71.0954 68.5467 71.7589C67.4177 72.4225 66.1575 72.8316 64.8541 72.9578C63.5506 73.0841 62.2353 72.9243 61 72.4898" stroke="#F47D43" stroke-width="2.5" stroke-linecap="round" stroke-linejoin="round"/>
<path d="M72.208 59.8148C74.0033 58.9504 75.5551 57.6527 76.7234 56.0386C77.8917 54.4245 78.6397 52.5449 78.8999 50.5695C79.1601 48.594 78.9243 46.5848 78.2137 44.7233C77.5032 42.8617 76.3403 41.2064 74.83 39.9068M74.74 39.6638C75.7239 38.1915 76.1551 36.4186 75.9573 34.6589C75.7596 32.8993 74.9456 31.2663 73.6595 30.0492C72.3734 28.8321 70.6981 28.1092 68.9302 28.0087C67.1623 27.9081 65.4158 28.4363 64 29.4998M49 26.4998C49.0002 25.3759 49.2529 24.2664 49.7396 23.2534C50.2262 22.2404 50.9343 21.3497 51.8115 20.6471C52.6887 19.9445 53.7125 19.4481 54.8074 19.1945C55.9023 18.9408 57.0401 18.9365 58.1369 19.1818C59.2337 19.4271 60.2613 19.9157 61.1438 20.6116C62.0263 21.3074 62.7412 22.1927 63.2355 23.202C63.7298 24.2113 63.991 25.3188 63.9998 26.4426C64.0085 27.5665 63.7646 28.6779 63.286 29.6948M61 72.9998C61 74.5911 60.3679 76.1172 59.2426 77.2424C58.1174 78.3676 56.5913 78.9998 55 78.9998C53.4087 78.9998 51.8826 78.3676 50.7574 77.2424C49.6321 76.1172 49 74.5911 49 72.9998" stroke="#F47D43" stroke-width="2.5" stroke-linecap="round" stroke-linejoin="round"/>
</svg>
