<svg width="98" height="98" viewBox="0 0 98 98" fill="none" xmlns="http://www.w3.org/2000/svg">
<rect opacity="0.2" width="98" height="98" rx="8" fill="#F47D43"/>
<path d="M34 22H61C63.3869 22 65.6761 22.9482 67.364 24.636C69.0518 26.3239 70 28.6131 70 31V70C70 72.3869 69.0518 74.6761 67.364 76.364C65.6761 78.0518 63.3869 79 61 79H34C31.6131 79 29.3239 78.0518 27.636 76.364C25.9482 74.6761 25 72.3869 25 70V31C25 28.6131 25.9482 26.3239 27.636 24.636C29.3239 22.9482 31.6131 22 34 22ZM34 25C32.4087 25 30.8826 25.6321 29.7574 26.7574C28.6321 27.8826 28 29.4087 28 31V70C28 71.5913 28.6321 73.1174 29.7574 74.2426C30.8826 75.3679 32.4087 76 34 76H61C62.5913 76 64.1174 75.3679 65.2426 74.2426C66.3679 73.1174 67 71.5913 67 70V31C67 29.4087 66.3679 27.8826 65.2426 26.7574C64.1174 25.6321 62.5913 25 61 25H52V45.1L43 38.8L34 45.1V25ZM49 25H37V39.34L43 35.14L49 39.34V25Z" fill="#F47D43"/>
</svg>
