<svg width="466" height="72" viewBox="0 0 466 72" fill="none" xmlns="http://www.w3.org/2000/svg">
<path d="M46.5759 48.7926C45.798 50.1639 44.8784 51.4539 43.8324 52.6389L43.8613 52.6679L42.8907 53.6427C38.5652 57.9943 32.8039 60.3924 26.6695 60.3924C20.56 60.3924 14.8149 58.012 10.4951 53.6922C6.17525 49.3723 3.79493 43.6273 3.79493 37.5178C3.79493 37.0676 3.80863 36.6091 3.83604 36.1549C3.83885 36.0929 3.8429 36.0296 3.84726 35.9649L3.84852 35.9471C3.85132 35.9057 3.85412 35.8645 3.85692 35.8219L3.85817 35.8013C3.86503 35.7078 3.87342 35.6128 3.88152 35.5178C3.88838 35.4406 3.89524 35.358 3.90365 35.2755C3.9158 35.1543 3.92857 35.0303 3.94197 34.9066C3.95007 34.835 3.95848 34.7552 3.96938 34.6767C3.98029 34.5764 3.99555 34.4633 4.01082 34.3506C4.02047 34.2873 4.02858 34.2266 4.03823 34.1646C4.05194 34.0615 4.07 33.9471 4.089 33.8328C4.09866 33.7724 4.10956 33.7048 4.12077 33.6387C4.13043 33.5836 4.1401 33.526 4.151 33.4696C4.16315 33.3967 4.17841 33.3126 4.19367 33.2313C4.20738 33.1599 4.22265 33.0811 4.23791 33.0029C4.25598 32.9135 4.27373 32.8238 4.29429 32.7331C4.42513 32.1095 4.58618 31.483 4.7706 30.8731L4.77621 30.8565C4.79957 30.7768 4.8242 30.6955 4.85036 30.6157C4.87092 30.5481 4.89303 30.4781 4.9164 30.408C5.04568 30.0089 5.19022 29.6055 5.34318 29.2145C5.36374 29.1609 5.38585 29.103 5.40921 29.0466C5.43258 28.9859 5.4575 28.9242 5.48367 28.8606C5.51389 28.7849 5.54847 28.7024 5.58399 28.6183C5.61015 28.5547 5.64037 28.4846 5.6709 28.4145L5.68461 28.3828C5.72728 28.2878 5.76872 28.1927 5.81109 28.0977C5.84286 28.0273 5.87463 27.9585 5.90766 27.8884C6.48459 26.6439 7.18394 25.4408 7.98486 24.3118L8.11446 24.1327C8.20542 24.0075 8.29607 23.885 8.38704 23.7639C8.43127 23.7075 8.47644 23.6455 8.52348 23.5863C8.6241 23.457 8.72473 23.329 8.82629 23.2022C8.88548 23.1293 8.9459 23.0536 9.00789 22.9807C9.06303 22.9119 9.12628 22.839 9.18827 22.7645C9.24871 22.6916 9.31195 22.6187 9.3755 22.5471C9.4459 22.4658 9.51754 22.3832 9.59012 22.3019L6.9042 19.6147C2.44791 24.5224 0 30.8581 0 37.5184C0 44.6425 2.77409 51.3387 7.81136 56.3759C12.8486 61.4132 19.5444 64.1873 26.6689 64.1873C33.8152 64.1873 40.5278 61.3967 45.5678 56.332C47.0064 54.8878 48.2743 53.2853 49.3441 51.5617L46.5759 48.7926Z" fill="white"/>
<path d="M12.4471 51.7398C16.2451 55.5382 21.2964 57.6307 26.6695 57.6307C26.8374 57.6307 27.0053 57.6279 27.1748 57.6238C27.2589 57.6226 27.3402 57.6198 27.4228 57.617H27.4352C27.5592 57.6114 27.6816 57.6061 27.8056 57.5989C27.9047 57.5933 28.0025 57.588 28.1 57.5812C28.1511 57.5771 28.1938 57.5743 28.2349 57.5715L28.3025 57.5659C28.3919 57.559 28.4841 57.5506 28.5751 57.541C28.6564 57.5341 28.7318 57.5273 28.809 57.5188C28.8654 57.5132 28.9137 57.5079 28.9604 57.5023L29.0623 57.4911C29.1283 57.483 29.1944 57.4746 29.262 57.4653C29.5096 57.4347 29.7548 57.3992 29.9931 57.3593C30.0604 57.3481 30.1267 57.336 30.1928 57.3248L30.2149 57.3207C30.2685 57.3111 30.3196 57.3027 30.3719 57.2933L30.3981 57.2877C30.4669 57.2752 30.5358 57.2615 30.6031 57.2478C30.7847 57.212 30.961 57.1762 31.1373 57.1363C31.2557 57.1101 31.3741 57.0812 31.4912 57.0522L31.5061 57.0481C31.5364 57.0413 31.5653 57.0344 31.5959 57.026C31.684 57.0042 31.7625 56.9833 31.841 56.9628C31.9099 56.9447 31.9744 56.9285 32.0379 56.9104C32.0943 56.8952 32.1426 56.8815 32.1909 56.8678C32.2376 56.8541 32.275 56.8444 32.3105 56.8335L32.3379 56.8254C32.3874 56.8117 32.437 56.7964 32.4865 56.7812C32.5691 56.7562 32.6423 56.7344 32.7136 56.7111C32.7715 56.693 32.8239 56.6768 32.8775 56.66C33.0469 56.6048 33.2133 56.5485 33.3799 56.4893C33.4267 56.4728 33.4709 56.4575 33.5136 56.4413L33.5466 56.4304C33.6058 56.4095 33.6581 56.3905 33.7089 56.3696C33.7915 56.3394 33.8659 56.3117 33.9404 56.2815C34.0036 56.2581 34.0572 56.2372 34.1111 56.2154C34.2142 56.174 34.3064 56.1369 34.4002 56.0983L34.6796 55.9787C34.7678 55.9413 34.8531 55.9042 34.9357 55.8659C34.9852 55.8438 35.0266 55.8245 35.0693 55.8052L35.1092 55.7874C35.1768 55.7556 35.2469 55.7226 35.3157 55.6896C35.7384 55.4887 36.1556 55.2712 36.559 55.0426C36.6029 55.0176 36.6444 54.993 36.6855 54.9697C36.7792 54.9161 36.8715 54.8609 36.9637 54.8074L37.4235 54.5236C37.6272 54.3943 37.8365 54.2551 38.0636 54.0996C38.1256 54.0554 38.1889 54.0114 38.2509 53.9675L38.277 53.9495C38.3238 53.9164 38.3705 53.8834 38.416 53.8491L38.4297 53.8395C38.4643 53.8149 38.4985 53.79 38.5315 53.765L38.544 53.7554C38.6016 53.7143 38.6596 53.6713 38.716 53.6289C38.7808 53.5806 38.8427 53.5339 38.9032 53.4872C38.9459 53.4541 38.9817 53.4252 39.0188 53.3962L39.0614 53.3632C39.125 53.3136 39.1882 53.2626 39.2515 53.2118C39.3175 53.1594 39.3807 53.1071 39.4443 53.0548L39.4608 53.0411C39.582 52.942 39.7016 52.8401 39.8215 52.7354C39.8574 52.7037 39.8944 52.6719 39.9318 52.6404L37.2419 49.9505C34.2971 52.4604 30.5635 53.8354 26.6704 53.8354C17.6725 53.8354 10.3527 46.5156 10.3527 37.518C10.3527 33.1334 12.0679 29.017 15.1819 25.9304C16.6439 24.4822 18.3937 23.3065 20.284 22.4997L17.4314 19.6471C15.6127 20.5901 13.9526 21.8019 12.4919 23.2542C8.66459 27.0578 6.55717 32.1225 6.55717 37.518C6.55624 42.8908 8.64902 47.9418 12.4471 51.7398Z" fill="white"/>
<path d="M49.4889 32.5122C49.4889 25.3893 46.7152 18.6932 41.6779 13.6559C36.6406 8.61867 29.9445 5.8446 22.8204 5.8446C15.6741 5.8446 8.96148 8.63364 3.9214 13.6999C2.4828 15.1425 1.21492 16.7465 0.145157 18.4702L2.91362 21.2386C3.69148 19.8676 4.61266 18.5776 5.6575 17.3923L5.62852 17.3633L6.59921 16.3886C10.9247 12.0354 16.6859 9.63891 22.8204 9.63891C28.9299 9.63891 34.6749 12.0192 38.9948 16.3391C43.3149 20.6592 45.6949 26.4027 45.6949 32.5122C45.6949 32.9652 45.6812 33.4234 45.6538 33.8764C45.651 33.9368 45.647 34.0016 45.6426 34.0664C45.6398 34.1119 45.6357 34.1586 45.6329 34.2069L45.6317 34.229C45.6248 34.324 45.6164 34.4191 45.6083 34.5125C45.6015 34.591 45.5946 34.6748 45.5862 34.7577C45.5737 34.876 45.5613 35.0013 45.5476 35.1253C45.5392 35.1966 45.5311 35.2751 45.5202 35.3552C45.5089 35.4558 45.494 35.5685 45.4787 35.6813C45.4691 35.7446 45.4607 35.8053 45.4513 35.8657C45.4376 35.9704 45.4195 36.0847 45.4002 36.1988C45.3906 36.2592 45.3797 36.3255 45.3685 36.3928C45.3588 36.4492 45.3491 36.5056 45.3382 36.5623C45.327 36.6352 45.3108 36.7193 45.2956 36.8006C45.2818 36.872 45.2666 36.9508 45.2501 37.029C45.2336 37.1171 45.2158 37.2081 45.1949 37.2987C45.0629 37.9224 44.903 38.5504 44.7186 39.1588C44.6925 39.2439 44.6675 39.3295 44.6389 39.4161C44.6183 39.4837 44.5962 39.5526 44.5728 39.6239C44.442 40.0258 44.299 40.4279 44.146 40.8173C44.1255 40.8709 44.1034 40.9273 44.0816 40.9837C44.0567 41.0457 44.032 41.1077 44.0059 41.1709C43.9756 41.2466 43.9398 41.3307 43.9052 41.4133C43.8791 41.4768 43.8489 41.5469 43.8187 41.617L43.8049 41.6488C43.7623 41.7438 43.7211 41.8388 43.6781 41.9323C43.6464 42.0027 43.6149 42.0728 43.5816 42.1416C43.0046 43.3861 42.3056 44.5908 41.504 45.7182L41.376 45.8973C41.2838 46.0238 41.1929 46.1465 41.1019 46.2664C41.058 46.3244 41.0125 46.3861 40.9654 46.4453C40.8651 46.5745 40.7645 46.7026 40.6626 46.8294C40.6034 46.9023 40.5427 46.978 40.481 47.0508C40.4287 47.1156 40.3707 47.1845 40.3131 47.2533L40.3019 47.2655C40.2387 47.3384 40.1767 47.4128 40.1134 47.4845C40.0433 47.5658 39.9717 47.6483 39.8988 47.7297L42.5847 50.4168C47.0413 45.5091 49.4889 39.1738 49.4889 32.5122Z" fill="white"/>
<path d="M29.2065 47.5316L32.0591 50.3842C33.8778 49.4412 35.5378 48.2297 36.9986 46.7771C40.8256 42.9734 42.9333 37.9072 42.9333 32.512C42.9333 27.1401 40.8408 22.0891 37.0425 18.2911C33.2441 14.493 28.1931 12.4003 22.82 12.4003C22.6521 12.4003 22.4839 12.4031 22.3148 12.4071C22.231 12.4084 22.1481 12.4099 22.0671 12.414H22.0547C21.9307 12.4196 21.8082 12.4252 21.6842 12.432C21.5852 12.4376 21.4874 12.4433 21.3896 12.4498C21.3385 12.4526 21.2961 12.4569 21.2547 12.4594L21.1858 12.465C21.0977 12.4719 21.0054 12.4803 20.9145 12.4884C20.8332 12.4965 20.7575 12.5037 20.6802 12.5118C20.6238 12.5174 20.5755 12.5227 20.5276 12.5283L20.4491 12.5367C20.4394 12.538 20.431 12.5395 20.4229 12.5408C20.3569 12.5476 20.2933 12.5557 20.2276 12.5641C19.9796 12.5959 19.7348 12.6314 19.4964 12.6716C19.4288 12.6825 19.3628 12.6934 19.2968 12.7059L19.275 12.7099C19.2226 12.7183 19.1731 12.728 19.1236 12.7373L19.0905 12.7429C19.0245 12.7554 18.9584 12.7679 18.8921 12.7816C18.7049 12.8174 18.5286 12.8545 18.3525 12.8943C18.2342 12.9205 18.1158 12.9495 17.9987 12.9784L17.9834 12.9825C17.9532 12.9881 17.9242 12.9962 17.894 13.0031C17.8058 13.0252 17.7273 13.0457 17.6488 13.0663C17.5812 13.0844 17.5167 13.1006 17.4519 13.1199C17.3956 13.1351 17.3473 13.1488 17.2977 13.1625C17.251 13.1763 17.2152 13.1859 17.1794 13.1968L17.1519 13.2052C17.1024 13.2189 17.0529 13.2326 17.0034 13.2492C16.9208 13.2725 16.8479 13.2959 16.7763 13.3192C16.7183 13.3373 16.666 13.3535 16.6124 13.3703C16.4432 13.4255 16.2763 13.4819 16.1099 13.541C16.0644 13.556 16.023 13.5713 15.9806 13.5865L15.942 13.6002C15.8856 13.6208 15.8361 13.6389 15.7853 13.6582C15.6984 13.6899 15.6243 13.7186 15.5498 13.7476C15.4878 13.7709 15.4342 13.7931 15.3791 13.8149C15.2757 13.8547 15.1835 13.8934 15.09 13.932L14.8106 14.0519C14.7224 14.089 14.6383 14.1261 14.5545 14.1647C14.5065 14.1868 14.4635 14.2061 14.4209 14.2254L14.381 14.2432C14.3134 14.275 14.2433 14.308 14.1744 14.341C13.752 14.5423 13.3333 14.7594 12.9315 14.988C12.886 15.013 12.8461 15.036 12.8047 15.0609C12.7165 15.1117 12.6287 15.1628 12.5418 15.2151L12.2511 15.3915C12.1919 15.4285 12.1287 15.4684 12.0667 15.507C11.8617 15.6363 11.6524 15.7756 11.4281 15.931C11.3705 15.9709 11.3122 16.0108 11.2558 16.051L11.2188 16.0771C11.1664 16.1142 11.1197 16.1472 11.073 16.1818L11.0536 16.1955C11.0219 16.2189 10.9904 16.2422 10.9586 16.2659L10.9465 16.2756C10.8885 16.317 10.8309 16.3597 10.7745 16.402C10.7097 16.4503 10.6493 16.497 10.5885 16.5441C10.5443 16.5771 10.5088 16.6061 10.473 16.6335L10.4287 16.6678C10.3655 16.7173 10.302 16.7668 10.2387 16.8192C10.1671 16.8756 10.0982 16.9335 10.0294 16.9899C9.90695 17.0889 9.78856 17.1908 9.66863 17.2955C9.63156 17.3273 9.59573 17.359 9.55835 17.3905L12.2483 20.0805C15.1931 17.5709 18.9267 16.1939 22.8197 16.1939C31.8177 16.1939 39.1371 23.515 39.1371 32.5117C39.1371 36.8978 37.4219 41.0124 34.308 44.1005C32.8466 45.5491 31.0968 46.7247 29.2065 47.5316Z" fill="white"/>
<path d="M99.2263 35.5614C102.73 36.9867 104.809 39.7778 104.809 43.8755C104.809 52.7835 96.9102 57 86.1018 57H64.3069L72.621 15.4293H92.6938C101.661 15.4293 106.65 18.8143 106.65 24.9312C106.65 30.1572 103.621 33.7204 99.2263 35.5614ZM90.4371 22.6745H80.6976L78.7379 32.4733H88.5367C93.5252 32.4733 96.5539 30.4541 96.5539 26.594C96.5539 23.8622 94.2972 22.6745 90.4371 22.6745ZM86.6957 49.7548C91.9811 49.7548 95.2474 47.7357 95.2474 43.7568C95.2474 40.6686 92.8125 39.4809 89.0118 39.4809H77.372L75.3528 49.7548H86.6957ZM123.495 28.8507C126.345 25.7626 130.265 24.5748 135.431 24.5748L133.768 33.1265C132.937 33.0671 132.403 33.0078 131.631 33.0078C126.167 33.0078 122.663 35.5614 121.475 41.5594L118.387 57H109.123L115.477 25.0499H124.267L123.495 28.8507ZM146.997 20.5959C143.731 20.5959 141.593 18.458 141.593 15.7856C141.593 12.6975 144.028 10.2626 147.71 10.2626C150.976 10.2626 153.174 12.2818 153.174 14.8948C153.174 18.2799 150.679 20.5959 146.997 20.5959ZM134.467 57L140.821 25.0499H150.026L143.672 57H134.467ZM182.737 25.0499H191.585L186.3 51.6552C183.865 63.9482 176.917 68.9961 165.871 68.9961C159.635 68.9961 154.409 67.5115 150.668 64.7797L155.062 58.069C157.557 60.1475 161.773 61.5134 166.286 61.5134C172.7 61.5134 175.61 58.6628 176.739 53.2586L176.976 51.8927C174.482 54.2088 171.156 55.4559 167.237 55.4559C159.338 55.4559 153.103 50.4081 153.103 42.0345C153.103 32.2357 160.704 24.5748 170.919 24.5748C175.67 24.5748 179.767 26.2377 181.727 30.276L182.737 25.0499ZM169.731 47.8544C175.135 47.8544 178.995 43.9943 178.995 38.5307C178.995 34.6706 176.382 32.2357 171.809 32.2357C166.346 32.2357 162.426 36.0959 162.426 41.5594C162.426 45.4196 165.158 47.8544 169.731 47.8544ZM218.796 24.5748C225.744 24.5748 230.436 28.3756 230.436 35.502C230.436 36.6897 230.317 37.9369 230.02 39.3028L226.457 57H217.192L220.637 39.8966C220.815 39.1246 220.874 38.3526 220.874 37.6993C220.874 34.433 219.093 32.5921 215.411 32.5921C210.719 32.5921 207.453 35.2051 206.325 40.7874L203.118 57H193.853L202.643 12.935H211.907L208.938 27.9599C211.729 25.6438 215.173 24.5748 218.796 24.5748ZM250.057 32.889L247.504 45.7165C247.385 46.1916 247.385 46.6073 247.385 47.023C247.385 48.9828 248.454 50.1111 250.77 50.1111C252.017 50.1111 253.324 49.6954 254.511 48.9828L255.877 55.5747C253.561 57 250.711 57.4751 247.92 57.4751C241.981 57.4751 237.943 54.1494 237.943 48.5671C237.943 47.6763 238.061 46.7261 238.239 45.7759L240.793 32.889H235.864L237.289 25.7626H242.218L243.762 17.9829H253.027L251.483 25.7626H259.441L258.015 32.889H250.057ZM324.99 15.4293H333.245L324.99 57H315.963L320.833 32.2951L304.977 52.6054H300.701L292.149 32.0576L287.161 57H278.134L286.448 15.4293H294.287L304.68 41.3219L324.99 15.4293ZM346.79 20.5959C343.523 20.5959 341.385 18.458 341.385 15.7856C341.385 12.6975 343.82 10.2626 347.502 10.2626C350.769 10.2626 352.966 12.2818 352.966 14.8948C352.966 18.2799 350.472 20.5959 346.79 20.5959ZM334.259 57L340.613 25.0499H349.818L343.464 57H334.259ZM377.006 24.5748C384.014 24.5748 388.646 28.3756 388.646 35.4426C388.646 36.6304 388.527 37.9369 388.23 39.3028L384.667 57H375.402L378.847 39.8966C379.025 39.1246 379.084 38.3526 379.084 37.6993C379.084 34.433 377.303 32.5921 373.621 32.5921C368.929 32.5921 365.663 35.2051 364.535 40.7874L361.328 57H352.063L358.418 25.0499H367.207L366.494 28.4944C369.404 25.822 373.086 24.5748 377.006 24.5748ZM425.481 12.935H434.746L425.956 57H417.167L417.82 53.7931C415.267 56.1092 412 57.4751 408.022 57.4751C400.598 57.4751 394.244 52.2491 394.244 43.1629C394.244 32.4139 402.023 24.5748 411.882 24.5748C416.514 24.5748 420.136 26.1189 422.215 29.2664L425.481 12.935ZM410.872 49.8142C416.336 49.8142 420.255 45.5384 420.255 39.3028C420.255 34.9675 417.583 32.2357 412.951 32.2357C407.487 32.2357 403.568 36.5116 403.568 42.7472C403.568 47.0824 406.24 49.8142 410.872 49.8142ZM446.23 57.4751C440.588 57.4751 435.243 56.0498 432.571 54.1494L436.134 47.4387C438.866 49.2797 443.201 50.4675 447.239 50.4675C451.575 50.4675 453.475 49.2797 453.475 47.3793C453.475 42.866 436.55 46.6073 436.55 35.7989C436.55 28.6131 443.261 24.5748 452.584 24.5748C457.038 24.5748 461.492 25.5844 464.402 27.2472L461.077 34.0173C458.107 32.1763 454.603 31.5825 451.634 31.5825C447.358 31.5825 445.458 33.0078 445.458 34.73C445.458 39.4215 462.324 35.6802 462.324 46.3104C462.324 53.615 455.435 57.4751 446.23 57.4751Z" fill="white"/>
</svg>
