<svg width="156" height="166" viewBox="0 0 156 166" fill="none" xmlns="http://www.w3.org/2000/svg">
<g clip-path="url(#clip0_25_917)">
<path d="M96.6395 7.25778L11.4017 42.1725L11.2715 42.2266L11.1426 42.2822L11.0146 42.3396L10.8877 42.3983L10.8875 42.3984L10.7618 42.4585L10.6369 42.52L10.5135 42.5831C10.4313 42.6257 10.3502 42.6689 10.2692 42.7132L10.1489 42.7806L10.1487 42.7807C10.0293 42.8481 9.91125 42.9179 9.7946 42.99L9.79436 42.9901C7.81415 44.2126 6.3248 46.0072 5.45853 48.0599C4.55821 50.1928 4.33002 52.607 4.92319 54.9485L4.92368 54.9497L4.95779 55.0808L4.95828 55.082C4.99359 55.214 5.0315 55.3455 5.07171 55.4772L5.07201 55.4779L5.11332 55.6088L5.11361 55.6095L5.15647 55.7401L5.15676 55.7408L5.20173 55.8711L5.20202 55.8718L5.24848 56.0023L5.24867 56.0028L5.29725 56.133L5.34788 56.2635L5.40006 56.3936L45.9087 155.288C48.1772 160.826 54.5941 163.493 60.1622 161.212L145.4 126.298C150.972 124.016 153.672 117.618 151.402 112.077L110.893 13.1821C109.828 10.6316 107.897 8.65672 105.547 7.52097C102.734 6.16057 99.5401 6.09164 96.6395 7.25778ZM10.5135 42.5831C10.4313 42.6257 10.3499 42.669 10.2692 42.7132L10.5135 42.5831Z" fill="#0E1C2A"/>
<path fill-rule="evenodd" clip-rule="evenodd" d="M16.798 76.4122L48.6474 154.167C50.3 158.201 54.99 160.151 59.0465 158.489L144.284 123.574C148.341 121.913 150.318 117.241 148.663 113.199L116.813 35.4443L16.798 76.4122Z" fill="#E2E0DF"/>
<path fill-rule="evenodd" clip-rule="evenodd" d="M20.6717 74.8254L50.282 147.113C51.9345 151.148 56.6251 153.097 60.6813 151.436L147.745 115.773C148.248 115.567 148.725 115.312 149.163 115.018C149.07 114.393 148.902 113.783 148.663 113.199L116.813 35.4443L20.6717 74.8254Z" fill="#FCFBFC"/>
<path fill-rule="evenodd" clip-rule="evenodd" d="M97.7547 9.98165L12.5169 44.8963C8.453 46.561 6.48312 51.231 8.13834 55.272L15.6819 73.6881L115.697 32.7203L108.154 14.3041C106.498 10.262 101.819 8.31703 97.7547 9.98165Z" fill="#DB7174"/>
<path fill-rule="evenodd" clip-rule="evenodd" d="M19.5559 72.1013L115.698 32.7202L108.154 14.304C107.3 12.2192 105.642 10.6921 103.678 9.93088L17.2244 45.3437C13.1603 47.0084 11.1905 51.6787 12.8456 55.7194L19.5559 72.1013Z" fill="#D24F54"/>
<path d="M91.5302 21.397L86.8678 10.0146C86.6399 9.48161 86.2103 9.06008 85.6718 8.84107C85.1333 8.62206 84.5291 8.62314 83.9897 8.84408C83.4503 9.06502 83.019 9.48809 82.7889 10.0219C82.5588 10.5558 82.5484 11.1576 82.7598 11.6973L87.4222 23.0797C85.9218 24.6157 85.2384 26.5829 86.2491 29.0505C87.2598 31.5178 90.6553 33.2305 93.5013 32.0647C96.3472 30.899 97.5655 27.2964 96.5548 24.8291C95.5441 22.3615 93.677 21.4391 91.5302 21.397ZM24.9613 48.6646C23.4609 50.2006 22.7774 52.1678 23.7882 54.6354C24.7988 57.1027 28.1944 58.8154 31.0403 57.6497C33.8862 56.4839 35.1046 52.8814 34.0939 50.414C33.0831 47.9465 31.2161 47.024 29.0693 46.9819L24.4069 35.5996C24.1789 35.0665 23.7493 34.645 23.2108 34.426C22.6723 34.207 22.0682 34.2081 21.5288 34.429C20.9894 34.65 20.5581 35.073 20.328 35.6069C20.0979 36.1407 20.0874 36.7425 20.2989 37.2823L24.9613 48.6646ZM45.4772 40.261C43.9769 41.797 43.2934 43.7642 44.3042 46.2318C45.3148 48.6991 48.7104 50.4117 51.5563 49.246C54.4022 48.0803 55.6205 44.4777 54.6099 42.0104C53.5991 39.5428 51.732 38.6204 49.5852 38.5783L44.9229 27.1959C44.6949 26.6629 44.2653 26.2414 43.7268 26.0224C43.1883 25.8033 42.5841 25.8044 42.0448 26.0254C41.5054 26.2463 41.0741 26.6694 40.844 27.2032C40.6138 27.7371 40.6034 28.3388 40.8149 28.8786L45.4772 40.261ZM66.9062 31.4833C65.4056 33.0195 64.7222 34.9866 65.7329 37.4542C66.7436 39.9216 70.1391 41.6342 72.985 40.4685C75.8312 39.3027 77.0495 35.7001 76.0389 33.2328C75.0281 30.7652 73.1608 29.8428 71.014 29.8007L66.3516 18.4184C66.1223 17.8874 65.6927 17.468 65.155 17.2504C64.6174 17.0328 64.0147 17.0344 63.4765 17.2548C62.9383 17.4752 62.5077 17.8969 62.2772 18.4292C62.0467 18.9614 62.0347 19.5617 62.2438 20.101L66.9062 31.4833Z" fill="#0E1C2A"/>
<path d="M110.117 78.0173C110.686 77.7774 111.137 77.3241 111.374 76.7559C111.61 76.1876 111.612 75.5503 111.379 74.9823C111.147 74.4143 110.698 73.9615 110.131 73.7224C109.564 73.4832 108.924 73.4768 108.351 73.7048L49.6698 97.7414C49.1012 97.9812 48.6497 98.4345 48.4134 99.0028C48.1771 99.5711 48.175 100.208 48.4077 100.776C48.6403 101.344 49.0889 101.797 49.656 102.036C50.223 102.276 50.8627 102.282 51.4362 102.054L110.117 78.0173ZM103.715 62.387C104.283 62.1472 104.735 61.6939 104.971 61.1256C105.207 60.5573 105.21 59.92 104.977 59.352C104.744 58.784 104.296 58.3313 103.729 58.0921C103.162 57.8529 102.522 57.8466 101.948 58.0745L43.2674 82.1111C42.6988 82.351 42.2473 82.8043 42.011 83.3725C41.7747 83.9408 41.7726 84.5781 42.0053 85.1461C42.238 85.7141 42.6865 86.1669 43.2536 86.4061C43.8206 86.6453 44.4604 86.6516 45.0339 86.4236L103.715 62.387ZM94.7121 120.695C95.0013 120.582 95.2651 120.412 95.4882 120.197C95.7114 119.981 95.8895 119.723 96.012 119.439C96.1346 119.154 96.1992 118.849 96.2022 118.539C96.2052 118.23 96.1464 117.924 96.0293 117.638C95.9122 117.352 95.7391 117.092 95.5201 116.874C95.3011 116.656 95.0405 116.483 94.7536 116.367C94.4667 116.25 94.1591 116.191 93.8487 116.194C93.5383 116.197 93.2314 116.261 92.9457 116.383L64.0704 128.211C63.7812 128.324 63.5174 128.494 63.2943 128.71C63.0711 128.925 62.893 129.183 62.7705 129.467C62.6479 129.752 62.5833 130.058 62.5803 130.367C62.5773 130.676 62.6361 130.982 62.7532 131.268C62.8703 131.554 63.0434 131.814 63.2624 132.032C63.4814 132.25 63.742 132.423 64.0289 132.54C64.3158 132.656 64.6234 132.715 64.9338 132.712C65.2442 132.709 65.5511 132.645 65.8368 132.523L94.7121 120.695ZM116.495 93.5886C117.07 93.3531 117.529 92.9001 117.77 92.3292C118.011 91.7583 118.014 91.1164 117.78 90.5445C117.546 89.9726 117.093 89.5178 116.521 89.2799C115.948 89.042 115.304 89.0407 114.729 89.2761L57.692 112.639C57.1234 112.879 56.672 113.332 56.4356 113.901C56.1993 114.469 56.1973 115.106 56.4299 115.674C56.6626 116.242 57.1112 116.695 57.6782 116.934C58.2453 117.173 58.885 117.18 59.4585 116.952L116.495 93.5886Z" fill="#1C262E"/>
</g>
<defs>
<clipPath id="clip0_25_917">
<rect width="114" height="132" fill="white" transform="matrix(-0.925377 0.379048 0.379048 0.925377 105.493 0)"/>
</clipPath>
</defs>
</svg>
