<svg width="20" height="20" viewBox="0 0 20 20" fill="none" xmlns="http://www.w3.org/2000/svg">
<g clip-path="url(#clip0_25_743)">
<path d="M11.5734 8.27917C12.4692 9.01 12.9167 9.375 12.9167 10C12.9167 10.625 12.4692 10.99 11.5734 11.7208C11.3259 11.9225 11.0809 12.1125 10.8551 12.2708C10.6576 12.41 10.4334 12.5533 10.2017 12.6942C9.30758 13.2375 8.86092 13.5092 8.46008 13.2083C8.06008 12.9083 8.02341 12.2783 7.95008 11.0183C7.93008 10.6625 7.91675 10.3133 7.91675 10C7.91675 9.68667 7.93008 9.3375 7.95008 8.98167C8.02341 7.72167 8.06008 7.0925 8.46008 6.79167C8.86092 6.49083 9.30841 6.7625 10.2017 7.30583C10.4334 7.44667 10.6576 7.59 10.8551 7.72917C11.0801 7.8875 11.3259 8.0775 11.5734 8.27917Z" stroke="#F47D43" stroke-width="1.5"/>
<path d="M5.83341 2.78152C7.09962 2.04879 8.53715 1.6641 10.0001 1.66652C14.6026 1.66652 18.3334 5.39735 18.3334 9.99985C18.3334 14.6023 14.6026 18.3332 10.0001 18.3332C5.39758 18.3332 1.66675 14.6023 1.66675 9.99985C1.66675 8.48235 2.07258 7.05818 2.78175 5.83318" stroke="#F47D43" stroke-width="1.5" stroke-linecap="round"/>
</g>
<defs>
<clipPath id="clip0_25_743">
<rect width="20" height="20" fill="white"/>
</clipPath>
</defs>
</svg>
