<svg width="30" height="30" viewBox="0 0 30 30" fill="none" xmlns="http://www.w3.org/2000/svg">
<path d="M24.3563 25.1927L16.5288 17.3652C15.9038 17.8977 15.185 18.3098 14.3725 18.6014C13.56 18.8931 12.7433 19.0389 11.9225 19.0389C9.92084 19.0389 8.22668 18.346 6.84001 16.9602C5.45334 15.5743 4.76001 13.8806 4.76001 11.8789C4.76001 9.87726 5.45251 8.18268 6.83751 6.79518C8.22251 5.40768 9.91584 4.7131 11.9175 4.71143C13.9192 4.70976 15.6142 5.4031 17.0025 6.79143C18.3908 8.17976 19.085 9.87435 19.085 11.8752C19.085 12.7435 18.9313 13.5839 18.6238 14.3964C18.3163 15.2089 17.9121 15.9039 17.4113 16.4814L25.2388 24.3077L24.3563 25.1927ZM11.9238 17.7877C13.5821 17.7877 14.9821 17.2168 16.1238 16.0752C17.2654 14.9335 17.8363 13.5331 17.8363 11.8739C17.8363 10.2148 17.2654 8.81476 16.1238 7.67393C14.9821 6.5331 13.5821 5.96226 11.9238 5.96143C10.2654 5.9606 8.86501 6.53143 7.72251 7.67393C6.58001 8.81643 6.00918 10.2164 6.01001 11.8739C6.01084 13.5314 6.58168 14.9314 7.72251 16.0739C8.86334 17.2164 10.2633 17.7873 11.9225 17.7864" fill="#949494"/>
</svg>
