<svg width="31" height="30" viewBox="0 0 31 30" fill="none" xmlns="http://www.w3.org/2000/svg">
<path d="M18.8577 16.2501H11.3577M15.1077 12.5001V20.0001M23.8577 12.5001H22.6077M2.60767 16.7051C2.60767 12.8738 2.60767 10.9588 3.54392 9.58381C3.95087 8.9863 4.47164 8.47488 5.07642 8.07881C5.97642 7.48756 7.10392 7.27631 8.83017 7.20131C9.65392 7.20131 10.3627 6.58881 10.5239 5.79506C10.6471 5.21364 10.9673 4.6926 11.4304 4.32C11.8934 3.94739 12.4708 3.74607 13.0652 3.75006H17.1502C18.3852 3.75006 19.4489 4.60631 19.6914 5.79506C19.8527 6.58881 20.5614 7.20131 21.3852 7.20131C23.1102 7.27631 24.2377 7.48881 25.1389 8.07881C25.7452 8.47631 26.2664 8.98756 26.6714 9.58381C27.6077 10.9588 27.6077 12.8738 27.6077 16.7051C27.6077 20.5363 27.6077 22.4501 26.6714 23.8263C26.2645 24.4238 25.7437 24.9352 25.1389 25.3313C23.7377 26.2501 21.7864 26.2501 17.8852 26.2501H12.3302C8.42892 26.2501 6.47767 26.2501 5.07642 25.3313C4.47197 24.9347 3.95163 24.4229 3.54517 23.8251C3.27359 23.4205 3.07359 22.9724 2.95392 22.5001" stroke="#949494" stroke-width="1.875" stroke-linecap="round"/>
</svg>
